<mxfile host="app.diagrams.net" modified="2020-12-23T05:30:04.587Z" agent="5.0 (Windows NT 10.0; WOW64) AppleWebKit/537.36 (KHTML, like Gecko) Chrome/87.0.4280.88 Safari/537.36" etag="xRQaA_LlG9OQ2uQgXgAG" version="14.1.1" type="github">
  <diagram id="od-ODvNptXYWHHqYrVLB" name="Page-1">
    <mxGraphModel dx="1422" dy="804" grid="1" gridSize="10" guides="1" tooltips="1" connect="1" arrows="1" fold="1" page="1" pageScale="1" pageWidth="827" pageHeight="1169" math="0" shadow="0">
      <root>
        <mxCell id="0" />
        <mxCell id="1" parent="0" />
        <mxCell id="5bLkhuR68SrIyAFpn3G6-7" value="税务" style="shape=umlLifeline;perimeter=lifelinePerimeter;whiteSpace=wrap;html=1;container=1;collapsible=0;recursiveResize=0;outlineConnect=0;" vertex="1" parent="1">
          <mxGeometry x="260" y="80" width="100" height="500" as="geometry" />
        </mxCell>
        <mxCell id="5bLkhuR68SrIyAFpn3G6-14" value="" style="html=1;points=[];perimeter=orthogonalPerimeter;" vertex="1" parent="5bLkhuR68SrIyAFpn3G6-7">
          <mxGeometry x="50" y="260" width="10" height="80" as="geometry" />
        </mxCell>
        <mxCell id="5bLkhuR68SrIyAFpn3G6-28" value="" style="html=1;points=[];perimeter=orthogonalPerimeter;" vertex="1" parent="5bLkhuR68SrIyAFpn3G6-7">
          <mxGeometry x="45" y="90" width="10" height="60" as="geometry" />
        </mxCell>
        <mxCell id="5bLkhuR68SrIyAFpn3G6-8" value="EPM" style="shape=umlLifeline;perimeter=lifelinePerimeter;whiteSpace=wrap;html=1;container=1;collapsible=0;recursiveResize=0;outlineConnect=0;" vertex="1" parent="1">
          <mxGeometry x="80" y="80" width="100" height="500" as="geometry" />
        </mxCell>
        <mxCell id="5bLkhuR68SrIyAFpn3G6-9" value="" style="html=1;points=[];perimeter=orthogonalPerimeter;" vertex="1" parent="5bLkhuR68SrIyAFpn3G6-8">
          <mxGeometry x="50" y="200" width="10" height="130" as="geometry" />
        </mxCell>
        <mxCell id="5bLkhuR68SrIyAFpn3G6-17" style="edgeStyle=orthogonalEdgeStyle;rounded=0;orthogonalLoop=1;jettySize=auto;html=1;" edge="1" parent="5bLkhuR68SrIyAFpn3G6-8" source="5bLkhuR68SrIyAFpn3G6-9">
          <mxGeometry relative="1" as="geometry">
            <mxPoint x="61" y="243" as="targetPoint" />
            <Array as="points">
              <mxPoint x="80" y="210" />
              <mxPoint x="80" y="243" />
            </Array>
          </mxGeometry>
        </mxCell>
        <mxCell id="5bLkhuR68SrIyAFpn3G6-15" value="查询对应的规则表" style="html=1;verticalAlign=bottom;startArrow=none;endArrow=block;startSize=8;exitX=1;exitY=0.5;exitDx=0;exitDy=0;exitPerimeter=0;startFill=0;" edge="1" target="5bLkhuR68SrIyAFpn3G6-14" parent="1" source="5bLkhuR68SrIyAFpn3G6-9">
          <mxGeometry relative="1" as="geometry">
            <mxPoint x="303" y="311.03999999999996" as="sourcePoint" />
          </mxGeometry>
        </mxCell>
        <object label="返回规则数据" id="5bLkhuR68SrIyAFpn3G6-16">
          <mxCell style="endArrow=open;endSize=12;dashed=1;html=1;" edge="1" parent="1" source="5bLkhuR68SrIyAFpn3G6-14">
            <mxGeometry width="160" relative="1" as="geometry">
              <mxPoint x="335" y="490" as="sourcePoint" />
              <mxPoint x="134.5" y="380" as="targetPoint" />
              <Array as="points" />
            </mxGeometry>
          </mxCell>
        </object>
        <mxCell id="5bLkhuR68SrIyAFpn3G6-18" value="python函数" style="text;html=1;align=center;verticalAlign=middle;resizable=0;points=[];autosize=1;" vertex="1" parent="1">
          <mxGeometry x="140" y="270" width="80" height="20" as="geometry" />
        </mxCell>
        <mxCell id="5bLkhuR68SrIyAFpn3G6-20" value="税务规则表" style="shape=umlLifeline;perimeter=lifelinePerimeter;whiteSpace=wrap;html=1;container=1;collapsible=0;recursiveResize=0;outlineConnect=0;" vertex="1" parent="1">
          <mxGeometry x="414" y="80" width="100" height="500" as="geometry" />
        </mxCell>
        <mxCell id="5bLkhuR68SrIyAFpn3G6-22" value="" style="html=1;points=[];perimeter=orthogonalPerimeter;" vertex="1" parent="5bLkhuR68SrIyAFpn3G6-20">
          <mxGeometry x="45" y="260" width="10" height="80" as="geometry" />
        </mxCell>
        <mxCell id="5bLkhuR68SrIyAFpn3G6-32" value="" style="html=1;points=[];perimeter=orthogonalPerimeter;" vertex="1" parent="5bLkhuR68SrIyAFpn3G6-20">
          <mxGeometry x="45" y="100" width="10" height="40" as="geometry" />
        </mxCell>
        <mxCell id="5bLkhuR68SrIyAFpn3G6-23" value="规则表" style="html=1;verticalAlign=bottom;endArrow=block;entryX=0.2;entryY=0.113;entryDx=0;entryDy=0;entryPerimeter=0;" edge="1" target="5bLkhuR68SrIyAFpn3G6-22" parent="1">
          <mxGeometry relative="1" as="geometry">
            <mxPoint x="314.5" y="349.03999999999996" as="sourcePoint" />
          </mxGeometry>
        </mxCell>
        <mxCell id="5bLkhuR68SrIyAFpn3G6-24" value="return" style="html=1;verticalAlign=bottom;endArrow=open;dashed=1;endSize=8;exitX=-0.1;exitY=0.325;exitDx=0;exitDy=0;exitPerimeter=0;" edge="1" source="5bLkhuR68SrIyAFpn3G6-22" parent="1">
          <mxGeometry relative="1" as="geometry">
            <mxPoint x="314.5" y="366" as="targetPoint" />
          </mxGeometry>
        </mxCell>
        <mxCell id="5bLkhuR68SrIyAFpn3G6-25" value="" style="shape=umlLifeline;participant=umlEntity;perimeter=lifelinePerimeter;whiteSpace=wrap;html=1;container=1;collapsible=0;recursiveResize=0;verticalAlign=top;spacingTop=36;outlineConnect=0;" vertex="1" parent="1">
          <mxGeometry x="630" y="80" width="65" height="510" as="geometry" />
        </mxCell>
        <mxCell id="5bLkhuR68SrIyAFpn3G6-26" value="税务规则页面" style="text;html=1;align=center;verticalAlign=middle;resizable=0;points=[];autosize=1;" vertex="1" parent="5bLkhuR68SrIyAFpn3G6-25">
          <mxGeometry x="-12.5" y="10" width="90" height="20" as="geometry" />
        </mxCell>
        <mxCell id="5bLkhuR68SrIyAFpn3G6-27" value="" style="html=1;points=[];perimeter=orthogonalPerimeter;" vertex="1" parent="5bLkhuR68SrIyAFpn3G6-25">
          <mxGeometry x="28" y="90" width="10" height="70" as="geometry" />
        </mxCell>
        <mxCell id="5bLkhuR68SrIyAFpn3G6-29" value="保存规则表" style="html=1;verticalAlign=bottom;endArrow=block;entryX=1;entryY=0;" edge="1" target="5bLkhuR68SrIyAFpn3G6-28" parent="1" source="5bLkhuR68SrIyAFpn3G6-27">
          <mxGeometry relative="1" as="geometry">
            <mxPoint x="610" y="180" as="sourcePoint" />
          </mxGeometry>
        </mxCell>
        <mxCell id="5bLkhuR68SrIyAFpn3G6-30" value="return" style="html=1;verticalAlign=bottom;endArrow=open;dashed=1;endSize=8;exitX=1;exitY=0.95;entryX=-0.2;entryY=0.8;entryDx=0;entryDy=0;entryPerimeter=0;" edge="1" source="5bLkhuR68SrIyAFpn3G6-28" parent="1" target="5bLkhuR68SrIyAFpn3G6-27">
          <mxGeometry relative="1" as="geometry">
            <mxPoint x="610" y="237" as="targetPoint" />
          </mxGeometry>
        </mxCell>
        <mxCell id="5bLkhuR68SrIyAFpn3G6-31" value="保存" style="html=1;verticalAlign=bottom;endArrow=block;exitX=0.9;exitY=0.45;exitDx=0;exitDy=0;exitPerimeter=0;" edge="1" parent="1" source="5bLkhuR68SrIyAFpn3G6-28" target="5bLkhuR68SrIyAFpn3G6-20">
          <mxGeometry width="80" relative="1" as="geometry">
            <mxPoint x="370" y="330" as="sourcePoint" />
            <mxPoint x="450" y="330" as="targetPoint" />
          </mxGeometry>
        </mxCell>
      </root>
    </mxGraphModel>
  </diagram>
</mxfile>
